<svg xmlns="http://www.w3.org/2000/svg" viewBox="0 0 440 595.3">
  <g name="symbol" feature="symbol" xmlns:name="symbol_mainfill" fill="#ff5722">
    <g>
      <path
        d="M256,68.5c-103.5,0-187.5,84-187.5,187.5c0,103.7,84,187.5,187.5,187.5c103.5,0,187.5-83.8,187.5-187.5   C443.5,152.5,359.5,68.5,256,68.5z M256,406c-82.7,0-150-67.1-150-150c0-82.7,67.3-150,150-150c82.7,0,150,67.3,150,150   C406,338.9,338.7,406,256,406z"></path>
      <polygon points="176.4,335.6 282.5,282.6 335.5,176.5 229.5,229.6  "></polygon>
    </g>
  </g>
</svg>
